<svg xmlns="http://www.w3.org/2000/svg" id="a" viewBox="0 0 316.91 165.9"><defs><style>.b{fill:#0046aa;}</style></defs><path class="b" d="M113.74,67.98c.49-.49.88-1.08,1.13-1.73.24-.6.36-1.23.36-1.87s-.12-1.28-.36-1.87c-.26-.65-.64-1.23-1.13-1.73-.49-.49-1.08-.88-1.73-1.13-.6-.24-1.23-.36-1.87-.36s-1.28.12-1.87.36c-.45.18-.85.44-1.23.73l-24.03-13.88c.03-.23.07-.46.07-.7,0-.64-.12-1.28-.36-1.87-.26-.65-.64-1.23-1.13-1.73-.49-.49-1.08-.88-1.73-1.13-.6-.24-1.23-.36-1.87-.36s-1.28.12-1.87.36c-.65.26-1.23.64-1.73,1.13-.49.49-.88,1.08-1.13,1.73-.24.6-.36,1.23-.36,1.87,0,.23.03.47.07.7l-24.03,13.87c-.38-.3-.79-.56-1.24-.73-.6-.24-1.23-.36-1.87-.36s-1.28.12-1.87.36c-.65.26-1.23.64-1.73,1.13-.49.49-.88,1.08-1.13,1.73-.24.6-.36,1.23-.36,1.87s.12,1.28.36,1.87c.26.65.64,1.23,1.13,1.73s1.06.86,1.69,1.12v27.71c-.63.26-1.21.63-1.69,1.12-.49.49-.88,1.08-1.13,1.73-.24.6-.36,1.23-.36,1.87s.12,1.28.36,1.87c.26.65.64,1.23,1.13,1.73.49.49,1.08.88,1.73,1.13.6.24,1.23.36,1.87.36s1.28-.12,1.87-.36c.45-.18.85-.44,1.23-.73l24.03,13.88c-.03.23-.07.46-.07.7,0,.64.12,1.28.36,1.87.26.65.64,1.23,1.13,1.73.49.49,1.08.88,1.73,1.13.6.24,1.23.36,1.87.36s1.28-.12,1.87-.36c.65-.26,1.23-.64,1.73-1.13.49-.49.88-1.08,1.13-1.73.24-.6.36-1.23.36-1.87,0-.23-.03-.47-.07-.7l24.03-13.87c.38.3.79.56,1.24.73.6.24,1.23.36,1.87.36s1.28-.12,1.87-.36c.65-.26,1.23-.64,1.73-1.13s.88-1.08,1.13-1.73c.24-.6.36-1.23.36-1.87s-.12-1.28-.36-1.87c-.26-.65-.64-1.23-1.13-1.73-.48-.48-1.06-.86-1.69-1.12v-27.71c.63-.26,1.21-.63,1.69-1.12ZM81.08,116.09c-.37-.29-.76-.54-1.2-.72v-27.71c.63-.26,1.21-.63,1.69-1.12s.88-1.08,1.13-1.73c.24-.6.36-1.23.36-1.87,0-.23-.03-.47-.07-.7l24.03-13.87c.37.29.76.54,1.2.72v27.71c-.44.18-.83.43-1.2.72-6.32-3.65-12.63-7.3-18.95-10.94-.18-.11-.42-.04-.52.14-.51.88-1.02,1.76-1.53,2.64-.11.18-.04.42.14.52,6.31,3.65,12.63,7.29,18.94,10.94-.03.23-.07.46-.07.7s.03.47.07.7l-24.03,13.87ZM50.84,102.21c.03-.23.07-.46.07-.7s-.03-.47-.07-.7c6.32-3.65,12.63-7.29,18.95-10.94.18-.11.25-.34.14-.52-.51-.88-1.02-1.76-1.53-2.65-.11-.18-.34-.25-.52-.14-6.32,3.65-12.64,7.29-18.95,10.94-.37-.29-.76-.54-1.2-.72v-27.71c.44-.18.83-.43,1.2-.72l24.03,13.88c-.03.23-.07.46-.07.7,0,.64.12,1.28.36,1.87.26.65.64,1.23,1.13,1.73s1.06.86,1.69,1.12v27.71c-.44.18-.83.43-1.2.72l-24.03-13.88ZM74.87,49.81c.37.29.76.54,1.2.72,0,7.29,0,14.57,0,21.86,0,.21.17.38.38.38,1.02,0,2.04,0,3.05,0,.21,0,.38-.17.38-.38,0-7.29,0-14.57,0-21.86.44-.18.83-.43,1.2-.72l24.03,13.88c-.03.23-.07.46-.07.7s.03.47.07.7l-24.03,13.87c-.38-.3-.79-.56-1.24-.73-.6-.24-1.23-.36-1.87-.36s-1.28.12-1.87.36c-.45.18-.85.44-1.23.73l-24.03-13.88c.03-.23.07-.46.07-.7s-.03-.47-.07-.7l24.03-13.87Z"/><path class="b" d="M161.11,64.38h-4.03c-.25,0-.46.1-.63.32-3.08,4.63-6.16,9.27-9.24,13.9-.03.04-.08.06-.16.06s-.13-.02-.16-.06c-3.09-4.63-6.19-9.27-9.28-13.9-.14-.21-.36-.32-.64-.32h-4.03c-.36,0-.53.17-.53.53v36.08c0,.36.17.53.53.53h4.03c.36,0,.53-.17.53-.53v-27.05c0-.11.04-.18.11-.21.07-.04.12,0,.16.1,2.55,3.82,5.09,7.64,7.64,11.46.18.21.39.32.64.32h2.02c.28,0,.49-.1.63-.32,2.53-3.85,5.06-7.71,7.59-11.56.03-.11.09-.14.16-.11.06.04.1.11.1.21v27.16c0,.36.17.53.53.53h4.03c.36,0,.53-.17.53-.53v-36.08c0-.36-.17-.53-.53-.53Z"/><path class="b" d="M187.69,65.42c-1.95-.97-4.19-1.46-6.74-1.46s-4.81.5-6.77,1.51c-1.97,1.01-3.49,2.43-4.56,4.24-1.08,1.82-1.62,3.94-1.62,6.34v13.74c0,2.41.54,4.53,1.62,6.4,1.07,1.86,2.59,3.29,4.56,4.29,1.96,1.01,4.22,1.51,6.77,1.51s4.79-.5,6.74-1.49c1.94-.99,3.45-2.38,4.53-4.17,1.08-1.79,1.62-3.85,1.62-6.18,0-.36-.17-.53-.53-.53-1.34-.07-2.69-.14-4.03-.21-.36,0-.53.16-.53.48v.1c0,2.26-.71,4.09-2.12,5.47-1.42,1.38-3.31,2.07-5.68,2.07s-4.27-.69-5.7-2.07c-1.43-1.38-2.15-3.2-2.15-5.47v-14.11c0-2.26.72-4.09,2.15-5.47,1.44-1.38,3.33-2.07,5.7-2.07s4.26.69,5.68,2.07c1.41,1.38,2.12,3.2,2.12,5.47v.16c0,.32.17.47.53.47,1.34-.07,2.69-.14,4.03-.21.14,0,.27-.06.37-.16.11-.1.16-.25.16-.43v-.05c0-2.33-.54-4.39-1.62-6.15-1.08-1.77-2.59-3.14-4.53-4.11Z"/><path class="b" d="M219.84,74.52h-3.98c-.36,0-.53.17-.53.53v16.5c0,1.8-.53,3.25-1.59,4.33-1.06,1.07-2.48,1.62-4.24,1.62s-3.14-.53-4.11-1.59c-.97-1.06-1.46-2.52-1.46-4.35v-16.5c0-.36-.17-.53-.53-.53h-3.98c-.36,0-.53.17-.53.53v18.09c0,1.88.44,3.47,1.33,4.77.89,1.31,2.06,2.3,3.53,2.98,1.47.67,3.07,1.01,4.8,1.01,2.94,0,5.11-.98,6.53-2.92.07-.06.13-.1.19-.08.05.02.08.06.08.14v1.96c0,.36.17.53.53.53h3.98c.36,0,.53-.17.53-.53v-25.94c0-.36-.17-.53-.53-.53Z"/><path class="b" d="M244.61,76.05c-1.69-1.31-3.87-1.96-6.52-1.96-1.2,0-2.35.24-3.43.71-1.07.48-2,1.16-2.78,2.04-.07.07-.14.09-.19.05-.05-.03-.08-.08-.08-.16v-11.83c0-.36-.18-.53-.53-.53h-4.04c-.35,0-.53.17-.53.53v36.07c0,.36.18.53.53.53h4.04c.35,0,.53-.17.53-.53v-1.75c0-.07.03-.12.08-.16.05-.03.12-.02.19.05.78.89,1.69,1.58,2.76,2.07,1.06.5,2.21.74,3.45.74,2.54,0,4.66-.63,6.34-1.88,1.68-1.25,2.9-3.03,3.69-5.33.67-1.88,1.01-4.14,1.01-6.79,0-2.48-.28-4.62-.85-6.42-.74-2.33-1.96-4.15-3.66-5.47ZM242.65,94.62c-1.03,1.95-2.7,2.92-5.04,2.92-2.06,0-3.61-.95-4.67-2.86-.85-1.55-1.27-3.78-1.27-6.68s.46-5.17,1.38-6.79c1.03-1.8,2.53-2.71,4.51-2.71,2.13,0,3.7.85,4.73,2.55,1.13,1.77,1.69,4.11,1.69,7,0,2.72-.44,4.92-1.33,6.58Z"/><path class="b" d="M276.02,84.65c-.39-3.47-1.47-6.09-3.23-7.88-1.77-1.79-4.44-2.68-8.01-2.68-2.72,0-5.04.7-6.95,2.12-1.91,1.42-3.18,3.34-3.82,5.78-.39,1.35-.58,3.3-.58,5.89,0,2.97.43,5.5,1.27,7.59.89,2.08,2.21,3.69,3.98,4.82,1.77,1.13,3.95,1.69,6.53,1.69,2.3,0,4.36-.46,6.18-1.38,1.82-.92,3.23-2.17,4.22-3.76.14-.25.08-.48-.16-.69-1.01-.67-2.01-1.35-3.02-2.02-.28-.25-.52-.19-.69.16-1.42,2.16-3.43,3.23-6.05,3.23-1.8,0-3.3-.39-4.48-1.19-1.19-.8-1.97-1.9-2.36-3.32-.21-.63-.32-1.55-.32-2.76,0-.14.07-.21.21-.21h16.93c.36,0,.53-.17.53-.53.03-1.8-.02-3.43-.16-4.88ZM270.88,85.87h-12.15c-.14,0-.21-.07-.21-.21.07-1.2.23-2.19.48-2.97.36-1.27,1.03-2.29,2.02-3.05s2.24-1.14,3.76-1.14,2.86.41,3.9,1.24c1.05.83,1.75,1.94,2.1,3.32.14.57.25,1.44.32,2.6,0,.14-.08.21-.21.21Z"/></svg>