<?xml version="1.0" encoding="UTF-8" standalone="no"?>
<svg
   id="a"
   viewBox="0 0 74.489996 84.480006"
   version="1.1"
   sodipodi:docname="mcube_logo.svg"
   width="74.489998"
   height="84.480003"
   inkscape:version="1.2.2 (b0a8486541, 2022-12-01)"
   xmlns:inkscape="http://www.inkscape.org/namespaces/inkscape"
   xmlns:sodipodi="http://sodipodi.sourceforge.net/DTD/sodipodi-0.dtd"
   xmlns="http://www.w3.org/2000/svg"
   xmlns:svg="http://www.w3.org/2000/svg">
  <sodipodi:namedview
     id="namedview42"
     pagecolor="#ffffff"
     bordercolor="#000000"
     borderopacity="0.25"
     inkscape:showpageshadow="2"
     inkscape:pageopacity="0.0"
     inkscape:pagecheckerboard="0"
     inkscape:deskcolor="#d1d1d1"
     showgrid="false"
     inkscape:zoom="5.2128365"
     inkscape:cx="158.455"
     inkscape:cy="82.968266"
     inkscape:window-width="3440"
     inkscape:window-height="1369"
     inkscape:window-x="0"
     inkscape:window-y="34"
     inkscape:window-maximized="1"
     inkscape:current-layer="a">
    <inkscape:page
       x="0"
       y="0"
       width="74.489998"
       height="84.480003"
       id="page2"
       margin="0"
       bleed="0" />
  </sodipodi:namedview>
  <defs
     id="defs27">
    <style
       id="style25">.b{fill:#0046aa;}</style>
  </defs>
  <path
     class="b"
     d="m 1.4899973,27.269999 c -0.49,-0.49 -0.88,-1.08 -1.13,-1.73 -0.24,-0.6 -0.359999997798,-1.23 -0.359999997798,-1.87 0,-0.64 0.119999997798,-1.28 0.359999997798,-1.87 0.26,-0.65 0.64,-1.23 1.13,-1.73 0.49,-0.49 1.08,-0.88 1.73,-1.13 0.6,-0.24 1.23,-0.36 1.87,-0.36 0.64,0 1.28,0.12 1.87,0.36 0.45,0.18 0.85,0.44 1.23,0.73 L 32.219997,5.7899984 c -0.03,-0.23 -0.07,-0.46 -0.07,-0.7 0,-0.64 0.12,-1.28 0.36,-1.87 0.26,-0.65 0.64,-1.23 1.13,-1.73 0.49,-0.49000002 1.08,-0.88000002 1.73,-1.13000002 0.6,-0.24 1.23,-0.3600000055047 1.87,-0.3600000055047 0.64,0 1.28,0.1200000055047 1.87,0.3600000055047 0.65,0.26 1.23,0.64 1.73,1.13000002 0.49,0.49 0.88,1.08 1.13,1.73 0.24,0.6 0.36,1.23 0.36,1.87 0,0.23 -0.03,0.47 -0.07,0.7 l 24.03,13.8700006 c 0.38,-0.3 0.79,-0.56 1.24,-0.73 0.6,-0.24 1.23,-0.36 1.87,-0.36 0.64,0 1.28,0.12 1.87,0.36 0.65,0.26 1.23,0.64 1.73,1.13 0.49,0.49 0.88,1.08 1.13,1.73 0.24,0.6 0.36,1.23 0.36,1.87 0,0.64 -0.12,1.28 -0.36,1.87 -0.26,0.65 -0.64,1.23 -1.13,1.73 -0.49,0.5 -1.06,0.86 -1.69,1.12 v 27.71 c 0.63,0.26 1.21,0.63 1.69,1.12 0.49,0.49 0.88,1.08 1.13,1.73 0.24,0.6 0.36,1.23 0.36,1.87 0,0.64 -0.12,1.28 -0.36,1.87 -0.26,0.65 -0.64,1.23 -1.13,1.73 -0.49,0.49 -1.08,0.88 -1.73,1.13 -0.6,0.24 -1.23,0.36 -1.87,0.36 -0.64,0 -1.28,-0.12 -1.87,-0.36 -0.45,-0.18 -0.85,-0.44 -1.23,-0.73 l -24.03,13.88 c 0.03,0.23 0.07,0.46 0.07,0.7 0,0.64 -0.12,1.28 -0.36,1.87 -0.26,0.65 -0.64,1.23 -1.13,1.73 -0.49,0.49 -1.08,0.88 -1.73,1.13 -0.6,0.24 -1.23,0.36 -1.87,0.36 -0.64,0 -1.28,-0.12 -1.87,-0.36 -0.65,-0.26 -1.23,-0.64 -1.73,-1.13 -0.49,-0.49 -0.88,-1.08 -1.13,-1.73 -0.24,-0.6 -0.36,-1.23 -0.36,-1.87 0,-0.23 0.03,-0.47 0.07,-0.7 l -24.0299997,-13.87 c -0.38,0.3 -0.79,0.56 -1.24,0.73 -0.6,0.24 -1.23,0.36 -1.87,0.36 -0.64,0 -1.28,-0.12 -1.87,-0.36 -0.65,-0.26 -1.23,-0.64 -1.73,-1.13 -0.5,-0.49 -0.88,-1.08 -1.13,-1.73 -0.24,-0.6 -0.359999997798,-1.23 -0.359999997798,-1.87 0,-0.64 0.119999997798,-1.28 0.359999997798,-1.87 0.26,-0.65 0.64,-1.23 1.13,-1.73 0.48,-0.48 1.06,-0.86 1.69,-1.12 v -27.71 c -0.63,-0.26 -1.21,-0.63 -1.69,-1.12 z m 32.6599997,48.11 c 0.37,-0.29 0.76,-0.54 1.2,-0.72 v -27.71 c -0.63,-0.26 -1.21,-0.63 -1.69,-1.12 -0.48,-0.49 -0.88,-1.08 -1.13,-1.73 -0.24,-0.6 -0.36,-1.23 -0.36,-1.87 0,-0.23 0.03,-0.47 0.07,-0.7 l -24.0299997,-13.87 c -0.37,0.29 -0.76,0.54 -1.2,0.72 v 27.71 c 0.44,0.18 0.83,0.43 1.2,0.72 6.3199997,-3.65 12.6299997,-7.3 18.9499997,-10.94 0.18,-0.11 0.42,-0.04 0.52,0.14 0.51,0.88 1.02,1.76 1.53,2.64 0.11,0.18 0.04,0.42 -0.14,0.52 -6.31,3.65 -12.63,7.29 -18.94,10.94 0.03,0.23 0.07,0.46 0.07,0.7 0,0.24 -0.03,0.47 -0.07,0.7 l 24.03,13.87 z m 30.24,-13.88 c -0.03,-0.23 -0.07,-0.46 -0.07,-0.7 0,-0.24 0.03,-0.47 0.07,-0.7 -6.32,-3.65 -12.63,-7.29 -18.95,-10.94 -0.18,-0.11 -0.25,-0.34 -0.14,-0.52 0.51,-0.88 1.02,-1.76 1.53,-2.65 0.11,-0.18 0.34,-0.25 0.52,-0.14 6.32,3.65 12.64,7.29 18.95,10.94 0.37,-0.29 0.76,-0.54 1.2,-0.72 v -27.71 c -0.44,-0.18 -0.83,-0.43 -1.2,-0.72 l -24.03,13.88 c 0.03,0.23 0.07,0.46 0.07,0.7 0,0.64 -0.12,1.28 -0.36,1.87 -0.26,0.65 -0.64,1.23 -1.13,1.73 -0.49,0.5 -1.06,0.86 -1.69,1.12 v 27.71 c 0.44,0.18 0.83,0.43 1.2,0.72 l 24.03,-13.88 z m -24.03,-52.4000006 c -0.37,0.29 -0.76,0.54 -1.2,0.72 0,7.2900006 0,14.5700006 0,21.8600006 0,0.21 -0.17,0.38 -0.38,0.38 -1.02,0 -2.04,0 -3.05,0 -0.21,0 -0.38,-0.17 -0.38,-0.38 0,-7.29 0,-14.57 0,-21.8600006 -0.44,-0.18 -0.83,-0.43 -1.2,-0.72 l -24.03,13.8800006 c 0.03,0.23 0.07,0.46 0.07,0.7 0,0.24 -0.03,0.47 -0.07,0.7 l 24.03,13.87 c 0.38,-0.3 0.79,-0.56 1.24,-0.73 0.6,-0.24 1.23,-0.36 1.87,-0.36 0.64,0 1.28,0.12 1.87,0.36 0.45,0.18 0.85,0.44 1.23,0.73 l 24.03,-13.88 c -0.03,-0.23 -0.07,-0.46 -0.07,-0.7 0,-0.24 0.03,-0.47 0.07,-0.7 z"
     id="path29" />
</svg>
