<?xml version="1.0" encoding="UTF-8" standalone="no"?>
<!-- Generator: Adobe Illustrator 26.0.3, SVG Export Plug-In . SVG Version: 6.00 Build 0)  -->

<svg
   version="1.1"
   x="0px"
   y="0px"
   viewBox="0 0 484 154.8"
   xml:space="preserve"
   id="svg88"
   sodipodi:docname="mirmi-logo.svg"
   width="484"
   height="154.8"
   inkscape:version="1.2.2 (b0a8486541, 2022-12-01)"
   xmlns:inkscape="http://www.inkscape.org/namespaces/inkscape"
   xmlns:sodipodi="http://sodipodi.sourceforge.net/DTD/sodipodi-0.dtd"
   xmlns="http://www.w3.org/2000/svg"
   xmlns:svg="http://www.w3.org/2000/svg"><defs
   id="defs92" /><sodipodi:namedview
   id="namedview90"
   pagecolor="#ffffff"
   bordercolor="#000000"
   borderopacity="0.25"
   inkscape:showpageshadow="2"
   inkscape:pageopacity="0.0"
   inkscape:pagecheckerboard="0"
   inkscape:deskcolor="#d1d1d1"
   showgrid="false"
   inkscape:zoom="3.3439306"
   inkscape:cx="244.77182"
   inkscape:cy="79.995678"
   inkscape:window-width="3440"
   inkscape:window-height="1369"
   inkscape:window-x="0"
   inkscape:window-y="34"
   inkscape:window-maximized="1"
   inkscape:current-layer="svg88" />
<style
   type="text/css"
   id="style25">
	.st0{fill-rule:evenodd;clip-rule:evenodd;fill:#FFDD00;}
	.st1{fill:#FFDD00;stroke:#000000;stroke-width:0.3347;stroke-miterlimit:2.6131;}
	.st2{fill:none;stroke:#000000;stroke-width:0.3347;stroke-linecap:round;stroke-miterlimit:2.6131;}
	.st3{fill:none;stroke:#000000;stroke-width:0.3347;stroke-miterlimit:2.6131;}
	.st4{fill-rule:evenodd;clip-rule:evenodd;fill:#E2001A;}
	.st5{display:none;fill-rule:evenodd;clip-rule:evenodd;fill:#DD2A1B;}
	.st6{fill-rule:evenodd;clip-rule:evenodd;}
	.st7{fill-rule:evenodd;clip-rule:evenodd;fill:#FFFFFF;stroke:#FFFFFF;stroke-width:6.281839e-02;stroke-miterlimit:2.6131;}
	.st8{fill-rule:evenodd;clip-rule:evenodd;fill:#FFFFFF;}
	.st9{fill:none;stroke:#000000;stroke-width:0.2514;stroke-linecap:round;stroke-linejoin:round;stroke-miterlimit:2.6131;}
	.st10{fill:#FFDD00;}
	.st11{fill:#E2001A;}
	.st12{fill:none;stroke:#E2001A;stroke-width:0.2514;stroke-linecap:round;stroke-linejoin:round;stroke-miterlimit:2.6131;}
	
		.st13{clip-path:url(#SVGID_00000145016929520303064670000006055169343996403897_);fill-rule:evenodd;clip-rule:evenodd;fill:#008DC9;}
	
		.st14{clip-path:url(#SVGID_00000145016929520303064670000006055169343996403897_);fill:none;stroke:#00A2D3;stroke-width:2.027065e-02;stroke-miterlimit:2.6131;}
	.st15{fill:none;stroke:#000000;stroke-width:0.1673;stroke-linecap:round;stroke-linejoin:round;stroke-miterlimit:2.6131;}
	.st16{fill:none;stroke:#000000;stroke-width:0.2061;stroke-linecap:round;stroke-linejoin:round;stroke-miterlimit:2.6131;}
	.st17{fill:none;stroke:#000000;stroke-width:0.2094;stroke-linecap:round;stroke-linejoin:round;stroke-miterlimit:2.6131;}
	.st18{fill:none;stroke:#000000;stroke-width:0.1674;stroke-linecap:round;stroke-linejoin:round;stroke-miterlimit:2.6131;}
	.st19{fill-rule:evenodd;clip-rule:evenodd;stroke:#000000;stroke-width:6.281839e-02;stroke-miterlimit:2.6131;}
	.st20{fill:none;stroke:#000000;stroke-width:0.2487;stroke-linecap:round;stroke-linejoin:round;stroke-miterlimit:2.6131;}
	.st21{fill:none;stroke:#000000;stroke-width:0.335;stroke-miterlimit:2.6131;}
	.st22{fill-rule:evenodd;clip-rule:evenodd;fill:#008DC9;}
	.st23{fill:none;stroke:#000000;stroke-width:0.2514;stroke-miterlimit:2.6131;}
	
		.st24{fill-rule:evenodd;clip-rule:evenodd;stroke:#000000;stroke-width:6.508690e-02;stroke-linecap:round;stroke-linejoin:round;stroke-miterlimit:2.6131;}
	.st25{fill:none;stroke:#000000;stroke-width:0.3347;stroke-linecap:round;stroke-linejoin:round;stroke-miterlimit:2.6131;}
	.st26{fill:none;stroke:#000000;stroke-width:0.3355;stroke-miterlimit:2.6131;}
	
		.st27{clip-path:url(#SVGID_00000116930907254009356600000003478613241185290678_);fill-rule:evenodd;clip-rule:evenodd;fill:#008DC9;}
	
		.st28{clip-path:url(#SVGID_00000116930907254009356600000003478613241185290678_);fill-rule:evenodd;clip-rule:evenodd;fill:#FFFFFF;}
	.st29{clip-path:url(#SVGID_00000116930907254009356600000003478613241185290678_);fill:#FFFFFF;}
	.st30{fill:none;stroke:#000000;stroke-width:0.1745;stroke-miterlimit:2.6131;}
	.st31{fill:none;stroke:#000000;stroke-width:0.1673;stroke-miterlimit:2.6131;}
	.st32{fill:none;stroke:#000000;stroke-width:0.2514;stroke-linejoin:round;stroke-miterlimit:2.6131;}
	.st33{fill:none;stroke:#000000;stroke-width:0.2473;stroke-linecap:round;stroke-linejoin:round;stroke-miterlimit:2.6131;}
	.st34{fill:none;stroke:#000000;stroke-width:0.2513;stroke-linecap:round;stroke-linejoin:round;stroke-miterlimit:2.6131;}
	.st35{fill:none;stroke:#000000;stroke-width:0.2516;stroke-linecap:round;stroke-linejoin:round;stroke-miterlimit:2.6131;}
	.st36{fill:none;stroke:#000000;stroke-width:0.2515;stroke-linecap:round;stroke-linejoin:round;stroke-miterlimit:2.6131;}
	.st37{fill:none;stroke:#000000;stroke-width:0.2093;stroke-linecap:round;stroke-linejoin:round;stroke-miterlimit:2.6131;}
	.st38{fill:none;stroke:#000000;stroke-width:0.2514;stroke-linecap:round;stroke-miterlimit:2.6131;}
	.st39{fill:#008DC9;}
	.st40{fill:#CB0767;}
	.st41{fill:#1D1D1B;}
	.st42{fill:#E30427;}
	.st43{fill:#1D1E1C;}
	.st44{fill:#0000FF;}
	.st45{fill:#0072BB;}
	.st46{display:none;}
	.st47{display:inline;}
	.st48{fill:#003359;}
	.st49{display:inline;fill:#003359;}
	.st50{fill-rule:evenodd;clip-rule:evenodd;fill:#003359;}
	.st51{display:none;fill-rule:evenodd;clip-rule:evenodd;fill:#E2000F;}
	.st52{clip-path:url(#SVGID_00000079482936653049985360000007401437277414527395_);}
	.st53{clip-path:url(#SVGID_00000039814294706149726960000011925029669167851191_);}
	.st54{fill:none;stroke:#1D1D1B;stroke-width:0.2515;stroke-linecap:round;stroke-linejoin:round;stroke-miterlimit:2.6131;}
	.st55{clip-path:url(#SVGID_00000018215490212938380540000010649565996339072656_);fill-rule:evenodd;clip-rule:evenodd;fill:none;}
	.st56{clip-path:url(#SVGID_00000018215490212938380540000010649565996339072656_);fill:none;}
	.st57{clip-path:url(#SVGID_00000005988449575349745920000011046100291102472066_);}
	.st58{fill:none;stroke:#1D1D1B;stroke-width:0.2094;stroke-linecap:round;stroke-linejoin:round;stroke-miterlimit:2.6131;}
	.st59{display:inline;fill:none;stroke:#3070B3;stroke-miterlimit:10;}
</style>
<g
   id="original"
   transform="translate(-60.1,-93.1)">
	<g
   id="g53">
		<path
   class="st45"
   d="m 348.7,247.6 c -1.3,-5.4 -1.9,-12.3 -2.1,-14.8 -0.4,-4.3 -0.6,-8.5 -0.6,-12.5 0,-7.8 -0.5,-14.7 -1.4,-20.4 -1,-5.9 -2.9,-10.9 -5.6,-14.9 -2.8,-4.1 -6.6,-7.1 -11.4,-9.1 -4.6,-1.8 -10.5,-2.8 -17.6,-2.8 h -45.9 v 74.1 h 5.1 v -69 H 310 c 6.4,0 11.7,0.8 15.7,2.4 3.9,1.6 6.9,3.9 9.1,7.2 2.3,3.4 3.9,7.7 4.8,12.9 0.9,5.4 1.4,12 1.4,19.5 0,4.1 0.2,8.5 0.6,13 0.2,2.4 0.8,8.8 2,14.4 z"
   id="path27" />
		<g
   id="g51">
			<g
   id="g33">
				<g
   id="g31">
					<polygon
   class="st45"
   points="190.8,141.7 152.6,247.9 127.8,247.9 89.7,141.7 89.7,247.9 60.1,247.9 60.1,93.4 101,93.4 140.9,206.7 179.9,93.1 205.6,93.1 205.6,97.7 183.1,97.7 142.8,215.3 139.6,215.3 138.6,213.8 97.8,97.9 64.7,97.9 64.7,243.3 85.1,243.3 85.1,127.6 89,127.6 90,129.1 131,243.3 149.4,243.3 191,127.6 194.9,127.6 195.3,129.9 195.3,243.3 205.6,243.3 205.6,247.9 190.8,247.9 "
   id="polygon29" />
				</g>
			</g>
			<g
   id="g37">
				<path
   class="st45"
   d="M 246.7,247.9 H 215.9 V 93.1 h 30.8 z m -26.2,-4.6 h 21.7 V 97.7 h -21.7 z"
   id="path35" />
			</g>
			<g
   id="g41">
				<path
   class="st45"
   d="M 450.1,247.6 H 425.3 L 387.1,141.4 v 106.2 h -14.9 v -4.5 h 10.3 V 127.4 h 3.9 l 1,1.5 41,114.2 h 18.4 l 41.6,-115.7 h 3.9 l 0.4,2.3 V 247 h -4.5 V 141.5 Z m -9.9,-32.5 H 437 l -0.9,-1.5 -40.9,-115.9 h -35.4 v -4.5 h 38.6 l 40,113.4 38.9,-113.4 H 503 v 4.5 h -22.5 z"
   id="path39" />
			</g>
			<g
   id="g45">
				<path
   class="st45"
   d="M 544.1,247.9 H 513.3 V 93.1 h 30.8 z m -26.2,-4.6 h 21.7 V 97.7 h -21.7 z"
   id="path43" />
			</g>
			<path
   class="st45"
   d="m 339.1,127.1 c -1.6,-3.4 -3.8,-6 -6.5,-8 -2.7,-1.9 -5.8,-3.1 -9.3,-3.7 -3.3,-0.6 -6.7,-0.9 -10.2,-0.9 h -44.9 v 51.4 h 45.3 c 9,0 15.9,-2.2 20.6,-6.6 4.8,-4.4 7.2,-11 7.2,-19.6 0.1,-5 -0.6,-9.3 -2.2,-12.6 z m -8,28.9 c -3.9,3.6 -9.8,5.4 -17.6,5.4 h -40.8 v -42.3 h 40.4 c 3.2,0 6.4,0.3 9.4,0.8 2.8,0.5 5.3,1.5 7.5,3 2.1,1.4 3.8,3.5 5,6.1 1.3,2.7 1.9,6.3 1.9,10.7 0,7.3 -1.9,12.8 -5.8,16.3 z"
   id="path47" />
			<path
   class="st45"
   d="m 360.6,205.9 c 0,1 0,2.4 0,3.8 0,2 -0.1,4.1 -0.1,5.9 h 4.5 c 0,-1.8 0,-3.9 0.1,-5.8 0,-1.5 0,-2.9 0,-3.9 0,-6.1 -0.8,-11.3 -2.4,-15.5 -1.6,-4.2 -3.6,-7.6 -6,-10.3 -2.4,-2.7 -5.1,-4.6 -8,-5.9 -0.6,-0.2 -1.1,-0.5 -1.7,-0.7 0.2,-0.1 0.3,-0.1 0.5,-0.2 3,-1.4 6,-3.6 9,-6.7 3,-3 5.6,-7.1 7.8,-12 2.2,-5 3.3,-11.3 3.3,-18.7 0,-13.4 -4.4,-24 -13.2,-31.5 -8.6,-7.5 -21.7,-11.3 -38.7,-11.3 h -58 v 4.5 h 58 c 15.9,0 27.9,3.4 35.7,10.2 7.7,6.7 11.6,16.1 11.6,28.1 0,6.8 -1,12.4 -3,16.8 -2,4.4 -4.3,8 -6.9,10.7 -2.6,2.7 -5.2,4.6 -7.6,5.7 -3.3,1.5 -4.9,2.2 -5.7,2.4 l -1.5,0.9 v 3.6 l 2,0.2 c 2,0.2 4.2,0.9 6.6,1.9 2.3,1 4.5,2.6 6.5,4.8 2,2.2 3.7,5.2 5.1,8.8 1.4,3.9 2.1,8.6 2.1,14.2 z"
   id="path49" />
		</g>
	</g>
</g>
<g
   id="dark"
   class="st46"
   transform="translate(-60.1,-93.1)">
	<g
   class="st47"
   id="g82">
		<path
   class="st48"
   d="m 348.7,247.6 c -1.3,-5.4 -1.9,-12.3 -2.1,-14.8 -0.4,-4.3 -0.6,-8.5 -0.6,-12.5 0,-7.8 -0.5,-14.7 -1.4,-20.4 -1,-5.9 -2.9,-10.9 -5.6,-14.9 -2.8,-4.1 -6.6,-7.1 -11.4,-9.1 -4.6,-1.8 -10.5,-2.8 -17.6,-2.8 h -45.9 v 74.1 h 5.1 v -69 H 310 c 6.4,0 11.7,0.8 15.7,2.4 3.9,1.6 6.9,3.9 9.1,7.2 2.3,3.4 3.9,7.7 4.8,12.9 0.9,5.4 1.4,12 1.4,19.5 0,4.1 0.2,8.5 0.6,13 0.2,2.4 0.8,8.8 2,14.4 z"
   id="path56" />
		<g
   id="g80">
			<g
   id="g62">
				<g
   id="g60">
					<polygon
   class="st48"
   points="190.8,141.7 152.6,247.9 127.8,247.9 89.7,141.7 89.7,247.9 60.1,247.9 60.1,93.4 101,93.4 140.9,206.7 179.9,93.1 205.6,93.1 205.6,97.7 183.1,97.7 142.8,215.3 139.6,215.3 138.6,213.8 97.8,97.9 64.7,97.9 64.7,243.3 85.1,243.3 85.1,127.6 89,127.6 90,129.1 131,243.3 149.4,243.3 191,127.6 194.9,127.6 195.3,129.9 195.3,243.3 205.6,243.3 205.6,247.9 190.8,247.9 "
   id="polygon58" />
				</g>
			</g>
			<g
   id="g66">
				<path
   class="st48"
   d="M 246.7,247.9 H 215.9 V 93.1 h 30.8 z m -26.2,-4.6 h 21.7 V 97.7 h -21.7 z"
   id="path64" />
			</g>
			<g
   id="g70">
				<path
   class="st48"
   d="M 450.1,247.6 H 425.3 L 387.1,141.4 v 106.2 h -14.9 v -4.5 h 10.3 V 127.4 h 3.9 l 1,1.5 41,114.2 h 18.4 l 41.6,-115.7 h 3.9 l 0.4,2.3 V 247 h -4.5 V 141.5 Z m -9.9,-32.5 H 437 l -0.9,-1.5 -40.9,-115.9 h -35.4 v -4.5 h 38.6 l 40,113.4 38.9,-113.4 H 503 v 4.5 h -22.5 z"
   id="path68" />
			</g>
			<g
   id="g74">
				<path
   class="st48"
   d="M 544.1,247.9 H 513.3 V 93.1 h 30.8 z m -26.2,-4.6 h 21.7 V 97.7 h -21.7 z"
   id="path72" />
			</g>
			<path
   class="st48"
   d="m 339.1,127.1 c -1.6,-3.4 -3.8,-6 -6.5,-8 -2.7,-1.9 -5.8,-3.1 -9.3,-3.7 -3.3,-0.6 -6.7,-0.9 -10.2,-0.9 h -44.9 v 51.4 h 45.3 c 9,0 15.9,-2.2 20.6,-6.6 4.8,-4.4 7.2,-11 7.2,-19.6 0.1,-5 -0.6,-9.3 -2.2,-12.6 z m -8,28.9 c -3.9,3.6 -9.8,5.4 -17.6,5.4 h -40.8 v -42.3 h 40.4 c 3.2,0 6.4,0.3 9.4,0.8 2.8,0.5 5.3,1.5 7.5,3 2.1,1.4 3.8,3.5 5,6.1 1.3,2.7 1.9,6.3 1.9,10.7 0,7.3 -1.9,12.8 -5.8,16.3 z"
   id="path76" />
			<path
   class="st48"
   d="m 360.6,205.9 c 0,1 0,2.4 0,3.8 0,2 -0.1,4.1 -0.1,5.9 h 4.5 c 0,-1.8 0,-3.9 0.1,-5.8 0,-1.5 0,-2.9 0,-3.9 0,-6.1 -0.8,-11.3 -2.4,-15.5 -1.6,-4.2 -3.6,-7.6 -6,-10.3 -2.4,-2.7 -5.1,-4.6 -8,-5.9 -0.6,-0.2 -1.1,-0.5 -1.7,-0.7 0.2,-0.1 0.3,-0.1 0.5,-0.2 3,-1.4 6,-3.6 9,-6.7 3,-3 5.6,-7.1 7.8,-12 2.2,-5 3.3,-11.3 3.3,-18.7 0,-13.4 -4.4,-24 -13.2,-31.5 -8.6,-7.5 -21.7,-11.3 -38.7,-11.3 h -58 v 4.5 h 58 c 15.9,0 27.9,3.4 35.7,10.2 7.7,6.7 11.6,16.1 11.6,28.1 0,6.8 -1,12.4 -3,16.8 -2,4.4 -4.3,8 -6.9,10.7 -2.6,2.7 -5.2,4.6 -7.6,5.7 -3.3,1.5 -4.9,2.2 -5.7,2.4 l -1.5,0.9 v 3.6 l 2,0.2 c 2,0.2 4.2,0.9 6.6,1.9 2.3,1 4.5,2.6 6.5,4.8 2,2.2 3.7,5.2 5.1,8.8 1.4,3.9 2.1,8.6 2.1,14.2 z"
   id="path78" />
		</g>
	</g>
</g>
<g
   id="Info"
   class="st46"
   transform="translate(-60.1,-93.1)">
	<polyline
   class="st59"
   points="545,58 545,288 65,288 65,58 545,58  "
   id="polyline85" />
</g>
</svg>
