<svg xmlns="http://www.w3.org/2000/svg" xmlns:svg="http://www.w3.org/2000/svg" version="1.1" id="svg2" width="302.36133" height="302.36133" viewBox="0 0 302.36133 302.36133">
  <defs id="defs6" fill="#0061c3">
    <clipPath clipPathUnits="userSpaceOnUse" id="clipPath16" fill="#0061c3">
      <path d="M 0,226.771 H 226.771 V 0 H 0 Z" id="path14" fill="#0061c3"/>
    </clipPath>
  </defs>
  <g id="g8" transform="matrix(1.3333333,0,0,-1.3333333,0,302.36133)">
    <g id="g10">
      <g id="g12" clip-path="url(#clipPath16)">
        <g id="g18" transform="translate(183.9258,172.4868)">
          <path d="m 0,0 c -17.971,21.449 -44.725,33.557 -72.7,32.9 -14.319,-0.337 -26.935,-3.528 -39.691,-10.042 -4.845,-2.474 -9.384,-5.321 -13.721,-8.607 -2.125,-1.61 -4.171,-3.305 -6.149,-5.093 -0.977,-0.884 -1.934,-1.787 -2.872,-2.712 -0.467,-0.459 -0.928,-0.924 -1.384,-1.392 -0.228,-0.234 -0.454,-0.47 -0.678,-0.705 -0.164,-0.173 0.168,-0.167 0.282,-0.219 0.423,-0.188 0.846,-0.376 1.268,-0.565 0.845,-0.376 1.69,-0.752 2.535,-1.129 1.69,-0.753 3.38,-1.507 5.07,-2.26 9.798,-4.367 19.597,-8.735 29.395,-13.103 0.612,-0.272 1.225,-0.546 1.837,-0.819 0.201,-0.089 0.358,-0.459 0.622,-0.177 0.063,0.067 0.127,0.133 0.191,0.199 0.129,0.132 0.261,0.261 0.396,0.388 0.27,0.254 0.551,0.496 0.843,0.727 1.194,0.947 2.459,1.638 3.901,2.133 4.283,1.471 9.02,0.639 12.544,-2.204 1.96,-1.581 3.239,-3.367 4.103,-5.732 0.405,-1.107 0.651,-2.218 0.752,-3.392 0.048,-0.556 0.06,-1.11 0.038,-1.668 -0.006,-0.136 -0.014,-0.272 -0.024,-0.407 -0.004,-0.068 -0.01,-0.135 -0.016,-0.203 -0.027,-0.317 0.29,-0.2 0.454,-0.273 0.491,-0.219 0.982,-0.438 1.473,-0.657 3.927,-1.751 7.855,-3.501 11.782,-5.252 2.484,-1.107 4.969,-2.215 7.454,-3.322 1.242,-0.554 2.484,-1.107 3.727,-1.661 0.172,-0.077 1.59,-0.882 1.846,-0.686 l 1.617,1.244 c 4.313,3.316 8.625,6.633 12.938,9.95 0.27,0.207 0.539,0.415 0.808,0.622 0.135,0.103 0.27,0.207 0.404,0.311 0.027,0.02 0.062,0.031 0.045,0.075 -0.018,0.048 -0.036,0.096 -0.054,0.145 -0.036,0.097 -0.07,0.194 -0.103,0.292 -0.067,0.195 -0.129,0.391 -0.187,0.588 -0.116,0.392 -0.215,0.787 -0.297,1.187 -0.321,1.56 -0.385,3.072 -0.196,4.653 0.636,5.326 4.126,9.845 9.119,11.805 2.557,1.004 4.946,1.258 7.657,0.815 1.21,-0.197 2.35,-0.534 3.474,-1.025 0.589,-0.257 1.154,-0.55 1.705,-0.883 0.281,-0.17 0.555,-0.349 0.824,-0.537 0.034,-0.024 0.068,-0.048 0.101,-0.072 0.114,-0.082 0.146,0.056 0.21,0.105 0.222,0.171 0.444,0.342 0.666,0.512 0.888,0.683 1.776,1.366 2.664,2.049 C -3.552,-2.731 -1.776,-1.366 0,0 m -2.414,-120.969 -28.2,12.57 c -0.588,0.261 -1.175,0.524 -1.762,0.785 -0.294,0.131 -0.588,0.262 -0.882,0.393 -0.024,0.011 -0.039,0.007 -0.055,-0.014 -0.032,-0.04 -0.063,-0.08 -0.095,-0.119 -0.063,-0.08 -0.128,-0.159 -0.193,-0.237 -0.13,-0.158 -0.263,-0.313 -0.399,-0.466 -0.553,-0.62 -1.143,-1.192 -1.779,-1.726 -1.302,-1.093 -2.69,-1.947 -4.252,-2.618 -5.702,-2.449 -12.274,-1.623 -17.194,2.159 -2.729,2.098 -4.482,4.493 -5.657,7.729 -0.548,1.508 -0.87,3.018 -0.986,4.618 -0.054,0.756 -0.058,1.506 -0.012,2.262 0.022,0.366 0.055,0.73 0.101,1.093 0.022,0.179 0.048,0.357 0.075,0.535 0.015,0.088 0.029,0.176 0.044,0.264 0.004,0.022 0.008,0.044 0.012,0.066 0.024,0.14 -0.135,0.06 -0.202,0.09 -0.071,0.032 -0.143,0.064 -0.215,0.096 -0.143,0.064 -0.286,0.127 -0.429,0.191 -0.286,0.128 -0.573,0.256 -0.859,0.383 -1.146,0.511 -2.291,1.021 -3.436,1.531 -4.801,2.14 -9.602,4.28 -14.403,6.421 -2.401,1.069 -4.802,2.14 -7.202,3.21 -0.3,0.133 -0.601,0.267 -0.9,0.401 -0.151,0.067 -0.301,0.134 -0.451,0.201 -0.244,0.109 -0.27,-0.161 -0.396,-0.257 -0.521,-0.4 -1.041,-0.801 -1.562,-1.201 -1.042,-0.802 -2.084,-1.603 -3.125,-2.404 -1.042,-0.801 -2.084,-1.602 -3.125,-2.404 -0.521,-0.4 -1.042,-0.8 -1.563,-1.201 -0.26,-0.2 -0.521,-0.401 -0.781,-0.601 -0.13,-0.1 -0.261,-0.2 -0.391,-0.301 -0.048,-0.037 -0.183,-0.013 -0.138,-0.121 0.039,-0.093 0.077,-0.187 0.115,-0.281 0.074,-0.187 0.145,-0.376 0.212,-0.567 0.269,-0.756 0.478,-1.521 0.633,-2.308 1.32,-6.71 -1.659,-13.509 -7.487,-17.088 -3.131,-1.922 -6.121,-2.647 -9.785,-2.37 -1.571,0.118 -3.05,0.445 -4.524,0.999 -0.762,0.287 -1.493,0.626 -2.205,1.023 -0.365,0.203 -0.722,0.42 -1.071,0.651 -0.176,0.117 -0.35,0.237 -0.522,0.361 -0.086,0.062 -0.172,0.125 -0.258,0.189 l -0.127,0.097 c -0.011,0.008 -0.021,0.016 -0.032,0.024 -0.063,0.049 -0.075,-0.039 -0.109,-0.065 -0.141,-0.108 -0.282,-0.216 -0.423,-0.325 -0.564,-0.433 -1.127,-0.867 -1.691,-1.301 -3.021,-2.323 -6.042,-4.647 -9.064,-6.97 -0.378,-0.29 -0.755,-0.581 -1.133,-0.871 -0.118,-0.091 -0.517,-0.076 -0.326,-0.3 0.025,-0.029 0.049,-0.057 0.074,-0.086 0.049,-0.057 0.097,-0.115 0.146,-0.172 0.197,-0.229 0.394,-0.457 0.593,-0.684 0.398,-0.455 0.801,-0.907 1.208,-1.354 0.819,-0.901 1.656,-1.784 2.511,-2.651 1.728,-1.754 3.52,-3.433 5.383,-5.042 3.798,-3.283 7.797,-6.206 12.077,-8.83 12.576,-7.708 25.236,-11.894 39.927,-13.202 28.692,-2.556 56.925,8.471 76.29,29.795 m -130.571,18.694 c -2.87,6.844 -0.771,14.763 5.114,19.286 3.212,2.468 6.346,3.488 10.396,3.381 1.71,-0.046 3.318,-0.339 4.934,-0.901 0.825,-0.287 1.615,-0.634 2.385,-1.048 0.396,-0.214 0.782,-0.443 1.159,-0.688 0.192,-0.124 0.38,-0.253 0.566,-0.385 0.094,-0.066 0.186,-0.134 0.278,-0.202 0.387,-0.288 0.563,0.088 0.814,0.28 11.535,8.872 23.071,17.743 34.606,26.615 4.275,3.287 8.548,6.574 12.822,9.861 l 3.205,2.466 c 0.535,0.41 1.069,0.821 1.603,1.232 0.134,0.103 0.268,0.206 0.401,0.308 0.118,0.091 0.386,0.233 0.16,0.334 -0.685,0.305 -1.371,0.611 -2.056,0.916 l -16.455,7.335 -1.985,0.884 c -0.33,0.148 -0.661,0.295 -0.992,0.443 -0.165,0.074 -0.331,0.147 -0.496,0.221 -0.105,0.046 -0.171,0.294 -0.316,0.134 l -0.091,-0.098 c -0.061,-0.065 -0.122,-0.13 -0.184,-0.194 -0.125,-0.129 -0.252,-0.254 -0.381,-0.378 -0.261,-0.248 -0.531,-0.485 -0.812,-0.712 -0.567,-0.457 -1.161,-0.86 -1.795,-1.218 -1.273,-0.718 -2.577,-1.195 -4.013,-1.468 -2.759,-0.525 -5.13,-0.261 -7.706,0.858 -2.791,1.212 -4.674,2.898 -6.185,5.539 -0.727,1.27 -1.212,2.571 -1.493,4.007 -0.134,0.679 -0.212,1.36 -0.238,2.051 -0.012,0.335 -0.011,0.669 0.002,1.004 0.006,0.165 0.016,0.329 0.029,0.493 0.006,0.081 0.013,0.162 0.021,0.244 0.002,0.026 0.018,0.054 -0.018,0.07 -0.661,0.294 -1.323,0.589 -1.985,0.884 l -3.97,1.77 c -8.754,3.902 -17.507,7.804 -26.262,11.706 -2.188,0.975 -4.377,1.951 -6.565,2.926 l -3.283,1.464 c -0.273,0.122 -0.547,0.243 -0.821,0.365 -0.125,0.056 -0.221,0.359 -0.383,0.151 -0.014,-0.017 -0.028,-0.036 -0.042,-0.054 -0.112,-0.143 -0.224,-0.287 -0.336,-0.431 -0.448,-0.58 -0.889,-1.165 -1.323,-1.755 -8.666,-11.784 -14.393,-25.447 -16.719,-39.889 -2.325,-14.433 -1.177,-29.212 3.347,-43.114 1.528,-4.695 3.403,-9.195 5.66,-13.586 1.092,-2.125 2.263,-4.201 3.517,-6.234 0.616,-0.999 1.25,-1.986 1.904,-2.96 0.324,-0.483 0.653,-0.963 0.985,-1.439 0.042,-0.06 0.084,-0.119 0.125,-0.178 0.281,-0.401 0.466,0.163 0.671,0.32 1.356,1.043 2.711,2.086 4.067,3.128 2.711,2.086 5.423,4.171 8.134,6.256 M 3.109,-114.279 c 17.543,23.415 22.906,53.777 14.447,81.785 -1.627,5.386 -3.702,10.515 -6.277,15.517 -1.24,2.41 -2.581,4.754 -4.029,7.045 C 6.894,-9.369 6.532,-8.81 6.164,-8.254 5.981,-7.979 5.796,-7.703 5.61,-7.429 5.517,-7.292 5.424,-7.156 5.331,-7.02 5.284,-6.952 5.237,-6.884 5.19,-6.816 5.167,-6.782 5.144,-6.748 5.12,-6.714 L 5.085,-6.663 C 5.005,-6.549 4.962,-6.729 4.906,-6.772 4.691,-6.937 4.477,-7.102 4.263,-7.267 l -5.143,-3.955 c -0.857,-0.659 -1.714,-1.318 -2.572,-1.977 -0.11,-0.085 -0.326,-0.095 -0.246,-0.309 0.051,-0.138 0.101,-0.278 0.148,-0.417 0.094,-0.278 0.18,-0.558 0.257,-0.842 0.152,-0.56 0.271,-1.123 0.355,-1.697 0.864,-5.845 -1.877,-11.607 -6.958,-14.623 -2.723,-1.617 -5.326,-2.229 -8.484,-1.997 -1.358,0.099 -2.64,0.375 -3.919,0.841 -0.659,0.241 -1.293,0.526 -1.911,0.859 -0.318,0.172 -0.628,0.354 -0.933,0.548 -0.153,0.098 -0.305,0.2 -0.455,0.304 -0.417,0.288 -0.575,-0.142 -0.828,-0.337 l -6.585,-5.064 c -11.38,-8.752 -22.761,-17.505 -34.142,-26.257 -4.592,-3.532 -9.184,-7.063 -13.776,-10.595 -0.573,-0.442 -1.148,-0.883 -1.722,-1.324 -0.287,-0.221 -0.574,-0.442 -0.861,-0.662 -0.143,-0.111 -0.286,-0.221 -0.43,-0.332 -0.099,-0.075 -0.466,-0.167 -0.246,-0.265 0.594,-0.265 1.188,-0.529 1.782,-0.794 1.187,-0.529 2.375,-1.059 3.563,-1.588 4.751,-2.118 9.501,-4.235 14.252,-6.353 1.059,-0.472 2.117,-0.944 3.176,-1.416 0.265,-0.118 0.529,-0.235 0.794,-0.354 0.137,-0.061 0.246,-0.367 0.421,-0.147 0.032,0.04 0.064,0.08 0.096,0.12 0.128,0.159 0.26,0.316 0.395,0.47 0.271,0.312 0.552,0.613 0.845,0.904 0.594,0.591 1.223,1.131 1.897,1.63 1.37,1.013 2.811,1.781 4.415,2.355 3.132,1.119 6.016,1.317 9.271,0.637 6.481,-1.356 11.582,-6.302 13.138,-12.738 0.406,-1.678 0.553,-3.325 0.45,-5.048 -0.025,-0.402 -0.063,-0.803 -0.115,-1.203 -0.026,-0.196 -0.055,-0.391 -0.088,-0.586 -0.003,-0.024 -0.008,-0.049 -0.012,-0.073 -0.032,-0.188 0.643,-0.297 0.734,-0.338 l 1.699,-0.757 c 1.133,-0.505 2.266,-1.01 3.398,-1.515 9.062,-4.039 18.124,-8.078 27.186,-12.117 m 26.341,55.178 c 0,-55.223 -44.767,-99.99 -99.99,-99.99 -55.223,0 -99.99,44.767 -99.99,99.99 0,55.223 44.767,99.99 99.99,99.99 55.223,0 99.99,-44.767 99.99,-99.99" style="fill:#0061c3;fill-opacity:1;fill-rule:nonzero;stroke:none" id="path20"/>
        </g>
      </g>
    </g>
  </g>
</svg>