<?xml version="1.0" encoding="UTF-8"?>
<svg xmlns="http://www.w3.org/2000/svg" xmlns:xlink="http://www.w3.org/1999/xlink" width="226.771" height="226.771" viewBox="0 0 226.771 226.771">
<path fill-rule="nonzero" fill="rgb(0%, 0%, 0%)" fill-opacity="1" d="M 183.925781 54.285156 C 165.953125 32.835938 139.199219 20.726562 111.226562 21.382812 C 96.90625 21.722656 84.289062 24.914062 71.535156 31.425781 C 66.691406 33.898438 62.152344 36.746094 57.8125 40.03125 C 55.6875 41.644531 53.644531 43.339844 51.664062 45.125 C 50.6875 46.011719 49.730469 46.914062 48.792969 47.839844 C 48.324219 48.296875 47.863281 48.761719 47.410156 49.230469 C 47.179688 49.464844 46.953125 49.699219 46.730469 49.933594 C 46.566406 50.109375 46.898438 50.101562 47.011719 50.152344 C 47.4375 50.34375 47.859375 50.53125 48.28125 50.71875 C 49.125 51.09375 49.972656 51.472656 50.816406 51.847656 C 52.503906 52.601562 54.195312 53.355469 55.886719 54.109375 C 65.683594 58.476562 75.484375 62.84375 85.28125 67.210938 C 85.894531 67.484375 86.503906 67.757812 87.117188 68.03125 C 87.320312 68.121094 87.476562 68.488281 87.738281 68.207031 C 87.804688 68.140625 87.867188 68.074219 87.929688 68.007812 C 88.058594 67.875 88.191406 67.746094 88.328125 67.621094 C 88.597656 67.367188 88.878906 67.125 89.167969 66.894531 C 90.363281 65.945312 91.628906 65.253906 93.070312 64.761719 C 97.355469 63.289062 102.089844 64.121094 105.613281 66.964844 C 107.574219 68.546875 108.855469 70.332031 109.71875 72.695312 C 110.121094 73.804688 110.367188 74.914062 110.46875 76.089844 C 110.519531 76.644531 110.53125 77.199219 110.507812 77.757812 C 110.5 77.890625 110.492188 78.027344 110.484375 78.164062 C 110.480469 78.230469 110.472656 78.296875 110.46875 78.367188 C 110.441406 78.683594 110.757812 78.566406 110.921875 78.640625 C 111.414062 78.859375 111.902344 79.078125 112.394531 79.296875 C 116.320312 81.046875 120.25 82.796875 124.175781 84.546875 C 126.660156 85.65625 129.144531 86.761719 131.628906 87.871094 C 132.871094 88.425781 134.113281 88.976562 135.359375 89.53125 C 135.53125 89.609375 136.949219 90.414062 137.203125 90.21875 L 138.820312 88.972656 C 143.132812 85.65625 147.445312 82.339844 151.757812 79.023438 C 152.027344 78.816406 152.296875 78.609375 152.566406 78.402344 C 152.703125 78.296875 152.835938 78.195312 152.972656 78.089844 C 152.996094 78.070312 153.03125 78.058594 153.015625 78.015625 C 152.996094 77.96875 152.980469 77.917969 152.960938 77.871094 C 152.925781 77.773438 152.890625 77.675781 152.859375 77.578125 C 152.792969 77.382812 152.730469 77.1875 152.671875 76.988281 C 152.554688 76.597656 152.457031 76.203125 152.375 75.804688 C 152.054688 74.242188 151.988281 72.730469 152.179688 71.148438 C 152.816406 65.824219 156.304688 61.304688 161.296875 59.34375 C 163.855469 58.339844 166.242188 58.085938 168.953125 58.53125 C 170.164062 58.726562 171.304688 59.0625 172.429688 59.554688 C 173.019531 59.8125 173.582031 60.105469 174.132812 60.4375 C 174.414062 60.609375 174.6875 60.789062 174.957031 60.976562 C 174.992188 61 175.027344 61.023438 175.058594 61.046875 C 175.171875 61.128906 175.203125 60.992188 175.269531 60.941406 C 175.492188 60.769531 175.710938 60.601562 175.933594 60.429688 C 176.824219 59.746094 177.710938 59.0625 178.597656 58.382812 C 180.375 57.015625 182.148438 55.648438 183.925781 54.285156 M 181.511719 175.253906 L 153.3125 162.683594 C 152.722656 162.421875 152.136719 162.160156 151.550781 161.898438 C 151.253906 161.765625 150.960938 161.636719 150.667969 161.503906 C 150.644531 161.496094 150.628906 161.5 150.613281 161.519531 C 150.582031 161.558594 150.550781 161.597656 150.519531 161.636719 C 150.453125 161.71875 150.390625 161.796875 150.324219 161.875 C 150.195312 162.03125 150.0625 162.1875 149.925781 162.339844 C 149.371094 162.960938 148.78125 163.53125 148.148438 164.066406 C 146.84375 165.160156 145.457031 166.015625 143.894531 166.683594 C 138.191406 169.132812 131.621094 168.308594 126.699219 164.527344 C 123.972656 162.429688 122.21875 160.03125 121.042969 156.796875 C 120.496094 155.289062 120.171875 153.777344 120.058594 152.179688 C 120.003906 151.421875 120 150.671875 120.046875 149.917969 C 120.066406 149.550781 120.101562 149.1875 120.148438 148.824219 C 120.167969 148.644531 120.195312 148.46875 120.222656 148.289062 C 120.238281 148.203125 120.25 148.113281 120.265625 148.023438 C 120.269531 148.003906 120.273438 147.980469 120.277344 147.960938 C 120.300781 147.820312 120.144531 147.898438 120.074219 147.871094 C 120.003906 147.835938 119.933594 147.804688 119.859375 147.773438 C 119.71875 147.710938 119.574219 147.644531 119.433594 147.582031 C 119.144531 147.453125 118.859375 147.328125 118.574219 147.199219 C 117.425781 146.6875 116.28125 146.179688 115.136719 145.667969 C 110.335938 143.527344 105.535156 141.386719 100.734375 139.246094 C 98.332031 138.179688 95.933594 137.105469 93.53125 136.039062 C 93.230469 135.902344 92.929688 135.769531 92.632812 135.636719 C 92.480469 135.570312 92.332031 135.503906 92.179688 135.433594 C 91.9375 135.328125 91.910156 135.597656 91.785156 135.691406 C 91.265625 136.09375 90.742188 136.492188 90.222656 136.894531 C 89.179688 137.695312 88.140625 138.496094 87.097656 139.296875 C 86.054688 140.097656 85.015625 140.898438 83.972656 141.703125 C 83.453125 142.101562 82.929688 142.5 82.410156 142.902344 C 82.148438 143.101562 81.890625 143.304688 81.628906 143.503906 C 81.5 143.601562 81.367188 143.703125 81.238281 143.804688 C 81.191406 143.839844 81.054688 143.816406 81.101562 143.925781 C 81.140625 144.019531 81.175781 144.113281 81.214844 144.207031 C 81.289062 144.394531 81.359375 144.582031 81.425781 144.773438 C 81.695312 145.527344 81.90625 146.292969 82.058594 147.082031 C 83.378906 153.792969 80.402344 160.589844 74.574219 164.167969 C 71.441406 166.089844 68.453125 166.816406 64.789062 166.539062 C 63.21875 166.421875 61.738281 166.09375 60.265625 165.539062 C 59.5 165.253906 58.769531 164.914062 58.058594 164.515625 C 57.695312 164.3125 57.335938 164.097656 56.988281 163.867188 C 56.8125 163.75 56.636719 163.628906 56.464844 163.503906 C 56.378906 163.441406 56.292969 163.378906 56.207031 163.316406 L 56.082031 163.21875 C 56.070312 163.210938 56.058594 163.203125 56.046875 163.195312 C 55.984375 163.144531 55.972656 163.234375 55.941406 163.261719 C 55.796875 163.367188 55.65625 163.476562 55.515625 163.585938 C 54.953125 164.019531 54.390625 164.453125 53.824219 164.886719 C 50.804688 167.210938 47.785156 169.53125 44.761719 171.855469 C 44.382812 172.144531 44.007812 172.4375 43.628906 172.726562 C 43.511719 172.816406 43.113281 172.804688 43.304688 173.027344 C 43.328125 173.054688 43.351562 173.085938 43.375 173.113281 C 43.425781 173.171875 43.472656 173.226562 43.523438 173.285156 C 43.71875 173.515625 43.917969 173.742188 44.117188 173.96875 C 44.515625 174.425781 44.917969 174.875 45.324219 175.324219 C 46.144531 176.222656 46.980469 177.105469 47.835938 177.972656 C 49.5625 179.726562 51.355469 181.40625 53.21875 183.015625 C 57.015625 186.300781 61.015625 189.222656 65.292969 191.847656 C 77.871094 199.554688 90.53125 203.738281 105.222656 205.046875 C 133.914062 207.605469 162.148438 196.578125 181.511719 175.253906 M 50.941406 156.558594 C 48.070312 149.714844 50.167969 141.796875 56.054688 137.273438 C 59.265625 134.804688 62.402344 133.785156 66.449219 133.890625 C 68.160156 133.9375 69.769531 134.230469 71.386719 134.792969 C 72.210938 135.082031 73 135.425781 73.769531 135.839844 C 74.164062 136.054688 74.550781 136.285156 74.929688 136.527344 C 75.121094 136.652344 75.308594 136.78125 75.496094 136.914062 C 75.589844 136.980469 75.679688 137.046875 75.773438 137.117188 C 76.160156 137.402344 76.335938 137.027344 76.585938 136.835938 C 88.121094 127.964844 99.65625 119.09375 111.191406 110.222656 C 115.46875 106.933594 119.742188 103.648438 124.015625 100.359375 L 127.21875 97.894531 C 127.753906 97.484375 128.289062 97.074219 128.824219 96.664062 C 128.957031 96.558594 129.089844 96.457031 129.222656 96.355469 C 129.34375 96.261719 129.609375 96.121094 129.382812 96.019531 C 128.699219 95.714844 128.011719 95.410156 127.328125 95.105469 L 110.871094 87.769531 L 108.886719 86.886719 C 108.558594 86.738281 108.226562 86.589844 107.894531 86.441406 C 107.730469 86.367188 107.566406 86.296875 107.398438 86.222656 C 107.292969 86.175781 107.230469 85.925781 107.082031 86.085938 L 106.992188 86.183594 C 106.933594 86.25 106.871094 86.316406 106.808594 86.378906 C 106.683594 86.507812 106.558594 86.632812 106.429688 86.757812 C 106.167969 87.003906 105.898438 87.242188 105.617188 87.46875 C 105.046875 87.925781 104.453125 88.328125 103.820312 88.6875 C 102.546875 89.40625 101.242188 89.882812 99.808594 90.15625 C 97.046875 90.679688 94.679688 90.417969 92.101562 89.296875 C 89.3125 88.085938 87.429688 86.398438 85.917969 83.757812 C 85.191406 82.488281 84.703125 81.1875 84.421875 79.75 C 84.289062 79.070312 84.210938 78.390625 84.1875 77.699219 C 84.171875 77.363281 84.175781 77.03125 84.1875 76.695312 C 84.195312 76.53125 84.203125 76.367188 84.21875 76.203125 C 84.222656 76.121094 84.230469 76.042969 84.238281 75.960938 C 84.238281 75.933594 84.253906 75.90625 84.21875 75.890625 C 83.558594 75.59375 82.898438 75.300781 82.234375 75.003906 L 78.265625 73.234375 C 69.511719 69.332031 60.757812 65.429688 52.003906 61.527344 C 49.816406 60.554688 47.625 59.578125 45.4375 58.601562 L 42.15625 57.140625 C 41.882812 57.015625 41.609375 56.894531 41.332031 56.773438 C 41.207031 56.71875 41.113281 56.414062 40.949219 56.625 C 40.9375 56.640625 40.921875 56.660156 40.910156 56.675781 C 40.796875 56.820312 40.683594 56.964844 40.574219 57.109375 C 40.125 57.6875 39.683594 58.273438 39.25 58.863281 C 30.582031 70.648438 24.855469 84.308594 22.53125 98.753906 C 20.207031 113.183594 21.355469 127.964844 25.878906 141.867188 C 27.40625 146.5625 29.28125 151.0625 31.539062 155.453125 C 32.628906 157.578125 33.800781 159.652344 35.054688 161.6875 C 35.671875 162.683594 36.304688 163.671875 36.957031 164.644531 C 37.28125 165.128906 37.613281 165.609375 37.945312 166.085938 C 37.984375 166.144531 38.027344 166.203125 38.070312 166.261719 C 38.351562 166.664062 38.535156 166.101562 38.738281 165.941406 C 40.097656 164.898438 41.449219 163.855469 42.808594 162.816406 C 45.519531 160.730469 48.230469 158.644531 50.941406 156.558594 M 187.035156 168.5625 C 204.578125 145.148438 209.941406 114.785156 201.480469 86.777344 C 199.855469 81.390625 197.78125 76.261719 195.203125 71.261719 C 193.964844 68.851562 192.625 66.507812 191.175781 64.214844 C 190.820312 63.652344 190.457031 63.09375 190.089844 62.539062 C 189.90625 62.261719 189.722656 61.988281 189.535156 61.714844 C 189.441406 61.578125 189.351562 61.441406 189.257812 61.304688 C 189.210938 61.234375 189.164062 61.167969 189.117188 61.101562 C 189.09375 61.066406 189.070312 61.03125 189.046875 61 L 189.011719 60.945312 C 188.929688 60.832031 188.886719 61.011719 188.832031 61.054688 C 188.617188 61.222656 188.402344 61.386719 188.1875 61.550781 L 183.046875 65.507812 C 182.1875 66.164062 181.332031 66.824219 180.472656 67.484375 C 180.363281 67.566406 180.148438 67.578125 180.226562 67.792969 C 180.277344 67.929688 180.328125 68.070312 180.375 68.210938 C 180.46875 68.488281 180.554688 68.765625 180.632812 69.050781 C 180.785156 69.609375 180.902344 70.175781 180.988281 70.75 C 181.851562 76.59375 179.109375 82.355469 174.03125 85.371094 C 171.308594 86.988281 168.703125 87.601562 165.546875 87.367188 C 164.1875 87.269531 162.90625 86.992188 161.625 86.527344 C 160.96875 86.285156 160.332031 86 159.714844 85.667969 C 159.398438 85.496094 159.085938 85.3125 158.78125 85.121094 C 158.628906 85.023438 158.476562 84.921875 158.328125 84.816406 C 157.910156 84.527344 157.753906 84.957031 157.5 85.152344 L 150.914062 90.21875 C 139.535156 98.96875 128.152344 107.722656 116.773438 116.472656 C 112.179688 120.007812 107.589844 123.539062 102.996094 127.070312 C 102.421875 127.511719 101.847656 127.953125 101.273438 128.394531 C 100.988281 128.613281 100.699219 128.835938 100.414062 129.054688 C 100.269531 129.167969 100.128906 129.277344 99.984375 129.386719 C 99.886719 129.460938 99.519531 129.554688 99.738281 129.652344 C 100.332031 129.917969 100.925781 130.179688 101.519531 130.445312 C 102.707031 130.976562 103.894531 131.503906 105.082031 132.035156 C 109.832031 134.152344 114.582031 136.269531 119.335938 138.386719 C 120.394531 138.859375 121.453125 139.332031 122.511719 139.804688 C 122.777344 139.921875 123.039062 140.039062 123.304688 140.15625 C 123.441406 140.21875 123.550781 140.523438 123.726562 140.304688 C 123.757812 140.265625 123.789062 140.222656 123.820312 140.183594 C 123.949219 140.023438 124.082031 139.867188 124.21875 139.714844 C 124.488281 139.402344 124.769531 139.101562 125.0625 138.808594 C 125.65625 138.21875 126.285156 137.679688 126.957031 137.179688 C 128.328125 136.167969 129.769531 135.398438 131.375 134.824219 C 134.503906 133.707031 137.390625 133.507812 140.644531 134.1875 C 147.125 135.542969 152.226562 140.488281 153.78125 146.925781 C 154.1875 148.605469 154.335938 150.25 154.234375 151.972656 C 154.207031 152.375 154.167969 152.777344 154.117188 153.175781 C 154.09375 153.375 154.0625 153.566406 154.03125 153.761719 C 154.027344 153.789062 154.023438 153.8125 154.019531 153.835938 C 153.984375 154.023438 154.660156 154.132812 154.75 154.175781 L 156.449219 154.929688 C 157.582031 155.4375 158.71875 155.941406 159.847656 156.445312 C 168.910156 160.484375 177.972656 164.523438 187.035156 168.5625 M 213.375 113.386719 C 213.375 168.609375 168.609375 213.375 113.386719 213.375 C 58.164062 213.375 13.394531 168.609375 13.394531 113.386719 C 13.394531 58.164062 58.164062 13.394531 113.386719 13.394531 C 168.609375 13.394531 213.375 58.164062 213.375 113.386719 "/>
</svg>
